:SAMPLES-PER-SECOND 24
:FULLY-SPECIFIED
:DEGREES
174
root  0.511535 37.7688 29.4397 173.293 -65.4919 179.198
RightUpLeg  -4.20197 -9.84579 -18.2434
RightLeg  31.1141 3.16565 1.84568
RightFoot  -9.62984 -0.297309 15.2537
RightToes  -1.74623e-010 0 -2.59999e-017
Spine  7.04623 -0.920419 -5.07262
Spine1  14.1557 -2.74111 2.26921
HEad  -18.7217 -36.2255 18.1062
LeftShoulder1  1.91461 -3.38314 -21.4376
LeftArm  24.6423 -7.99452 -43.0954
LeftForeArm  117.517 -77.7052 -123.106
LeftHand  0.0687638 6.43642 10.0267
RightShoulder  2.40902 4.53087 23.8518
RightArm  -4.15211 -4.76027 28.927
RightForeArm  16.9351 65.5007 23.9848
RightHand  -0.199906 -2.47412 -7.587
LeftUpLeg  -0.597938 6.34923 13.3624
LeftLeg  36.1695 -5.03867 -3.55729
LeftFoot  -16.5087 -0.570868 -14.8105
LeftToes  -6.27559e-011 -2.10356e-011 8.24929e-012
175
root  0.804034 36.6764 29.625 172.679 -64.72 -179.977
RightUpLeg  -8.03005 -11.3017 -18.4126
RightLeg  37.6204 4.6045 3.57631
RightFoot  -14.5711 0.28768 13.4426
RightToes  -1.74623e-010 0 -2.59999e-017
Spine  6.80626 -0.739156 -3.40396
Spine1  16.4501 -1.8871 -0.0181862
HEad  -23.4608 -36.5771 21.6981
LeftShoulder1  1.96787 -3.28386 -22.6951
LeftArm  22.7044 -14.088 -41.2104
LeftForeArm  109.93 -78.9251 -112.798
LeftHand  0.205786 7.827 11.0875
RightShoulder  2.73746 4.94589 26.3735
RightArm  -12.7015 0.301096 26.1533
RightForeArm  23.2999 65.6654 23.3517
RightHand  -0.223711 -2.45494 -8.291
LeftUpLeg  -3.96267 7.15338 13.9584
LeftLeg  42.9882 -4.49937 -4.05212
LeftFoot  -22.0883 -1.2681 -14.8138
LeftToes  -6.27559e-011 -2.10356e-011 8.24929e-012
176
root  0.814808 36.7884 29.8406 175.959 -64.2884 177.553
RightUpLeg  -9.68207 -13.9942 -20.4112
RightLeg  38.0547 7.34131 5.87631
RightFoot  -12.7742 0.0903897 13.6811
RightToes  -1.74623e-010 0 -2.59999e-017
Spine  4.5645 -0.245657 -3.72591
Spine1  18.9366 -1.10868 -0.377528
HEad  -26.8365 -37.139 23.8762
LeftShoulder1  2.12192 -3.4993 -24.0753
LeftArm  20.9141 -13.1107 -42.8474
LeftForeArm  108.774 -79.6995 -105.505
LeftHand  0.206784 7.99454 10.4231
RightShoulder  3.02628 5.28883 28.4779
RightArm  -21.674 -1.60629 27.2084
RightForeArm  31.8859 64.5688 20.8628
RightHand  -0.197073 -3.93995 -14.3978
LeftUpLeg  -4.78629 7.37467 12.0705
LeftLeg  42.1015 -3.91886 -3.3697
LeftFoot  -21.5484 -1.20629 -14.8686
LeftToes  -6.27559e-011 -2.10356e-011 8.24929e-012
177
root  0.519448 38.1055 29.9309 177.421 -64.0032 176.629
RightUpLeg  -6.98226 -16.044 -21.2914
RightLeg  31.1263 10.2383 6.38888
RightFoot  -5.20314 -0.885437 15.7568
RightToes  -1.74623e-010 0 -2.59999e-017
Spine  2.95116 0.0510525 -5.19824
Spine1  18.7083 -1.41122 2.08786
HEad  -23.8943 -37.0593 21.539
LeftShoulder1  2.17877 -3.45768 -25.1235
LeftArm  20.0201 -3.79548 -45.9486
LeftForeArm  114.97 -79.306 -111.851
LeftHand  0.199354 7.74914 11.0596
RightShoulder  3.1431 5.40497 29.3623
RightArm  -24.1776 -7.49757 29.9646
RightForeArm  35.8992 62.6944 18.4687
RightHand  0.55156 -8.57418 -20.4797
LeftUpLeg  -1.6344 7.62538 10.8351
LeftLeg  34.1291 -3.52384 -2.19281
LeftFoot  -14.8604 -0.378962 -15.1464
LeftToes  -6.27559e-011 -2.10356e-011 8.24929e-012
178
root  0.200152 39.6809 29.9648 177.114 -62.8186 177.811
RightUpLeg  -4.89056 -15.8494 -20.3413
RightLeg  23.0903 11.8755 5.30679
RightFoot  6.65531 -2.5921 16.63
RightToes  -1.74623e-010 0 -2.59999e-017
Spine  2.04792 0.0605871 -5.58534
Spine1  16.46 -1.68679 3.83382
HEad  -18.1949 -36.435 18.6236
LeftShoulder1  2.16824 -3.29232 -25.7526
LeftArm  19.9064 7.29102 -46.9123
LeftForeArm  119.299 -78.1301 -121.333
LeftHand  0.121385 6.77049 11.8743
RightShoulder  3.34421 5.58375 30.9073
RightArm  -21.5701 -13.9084 29.9261
RightForeArm  35.078 60.4807 16.6785
RightHand  0.732072 -11.0961 -15.3606
LeftUpLeg  1.49887 8.45526 10.9857
LeftLeg  25.7288 -3.51939 -1.49977
LeftFoot  -4.5163 0.955272 -15.5496
LeftToes  -6.27559e-011 -2.10356e-011 8.24929e-012
179
root  0.00174563 40.6805 30.1381 178.432 -60.3316 177.945
RightUpLeg  -6.50057 -14.83 -19.7405
RightLeg  18.7347 11.4673 4.09205
RightFoot  13.3407 -3.19877 14.9826
RightToes  -1.74623e-010 0 -2.59999e-017
Spine  0.36103 0.106956 -4.00262
Spine1  15.6394 -0.91453 2.45587
HEad  -16.0929 -35.5046 17.9608
LeftShoulder1  2.20102 -3.5305 -25.1223
LeftArm  19.5527 15.0874 -46.6054
LeftForeArm  125.118 -77.0051 -128.483
LeftHand  0.0046838 5.66196 10.2701
RightShoulder  3.45195 5.6451 31.8539
RightArm  -19.9587 -19.4825 29.3565
RightForeArm  31.7538 59.102 15.9966
RightHand  0.00307277 -8.22855 -0.701105
LeftUpLeg  2.60701 7.57525 10.1118
LeftLeg  20.5337 -2.37398 -0.66052
LeftFoot  2.12365 1.62399 -13.8597
LeftToes  -6.27559e-011 -2.10356e-011 8.24929e-012
180
root  -0.104821 41.0293 30.5073 178.737 -57.0853 178.266
RightUpLeg  -8.58856 -14.9814 -19.7564
RightLeg  16.1759 9.45786 2.96212
RightFoot  10.1504 -2.38836 12.8786
RightToes  -1.74623e-010 0 -2.59999e-017
Spine  -0.464831 0.317513 -1.04168
Spine1  16.8512 0.133501 0.464139
HEad  -18.1454 -33.8487 17.8326
LeftShoulder1  2.18579 -3.86607 -23.4095
LeftArm  18.6015 18.3138 -47.469
LeftForeArm  132.28 -76.3581 -132.769
LeftHand  -0.0164056 5.4414 8.77409
RightShoulder  3.21924 5.35692 30.4293
RightArm  -19.8597 -22.1887 30.1421
RightForeArm  24.4706 58.137 16.0558
RightHand  -0.214623 -6.77459 12.4308
LeftUpLeg  4.21858 3.99457 8.82141
LeftLeg  18.4085 -0.676048 0.0850292
LeftFoot  3.06849 1.30515 -10.43
LeftToes  -6.27559e-011 -2.10356e-011 8.24929e-012
181
root  -0.117425 40.8678 30.8953 177.79 -53.0402 179.131
RightUpLeg  -10.3394 -14.5786 -19.6388
RightLeg  12.5164 6.01903 2.0095
RightFoot  4.83392 -1.66893 11.9394
RightToes  -1.74623e-010 0 -2.59999e-017
Spine  0.533341 0.662798 1.39087
Spine1  17.508 0.928217 -0.453069
HEad  -20.4711 -31.8188 17.1916
LeftShoulder1  2.09255 -3.79344 -22.3672
LeftArm  18.3552 17.6373 -47.8295
LeftForeArm  132.962 -76.5751 -132.119
LeftHand  -0.0226912 5.34654 9.30922
RightShoulder  3.02244 5.17246 28.9076
RightArm  -18.7558 -21.8737 29.3197
RightForeArm  17.4798 57.9993 16.6631
RightHand  -0.505502 -8.42597 16.4936
LeftUpLeg  6.44589 2.1287 9.02243
LeftLeg  18.9527 -3.09024 -0.851648
LeftFoot  1.72062 1.17981 -10.3765
LeftToes  -6.27559e-011 -2.10356e-011 8.24929e-012
182
root  -0.0711077 40.0467 31.2482 178.238 -48.2888 179.009
RightUpLeg  -14.1531 -14.2539 -19.7653
RightLeg  9.60582 1.69633 1.4057
RightFoot  2.64296 -1.28978 10.6402
RightToes  -1.74623e-010 0 -2.59999e-017
Spine  1.9732 0.954053 2.40099
Spine1  16.2825 1.56222 -1.2651
HEad  -20.7387 -29.6151 15.7532
LeftShoulder1  2.07673 -3.72408 -22.4258
LeftArm  18.5184 15.0928 -46.4081
LeftForeArm  126.82 -77.2843 -127.708
LeftHand  -0.0685171 4.80309 10.3856
RightShoulder  3.03316 5.2584 28.6815
RightArm  -17.4684 -19.7923 26.9361
RightForeArm  17.9693 59.6163 17.8474
RightHand  -0.394456 -8.57397 11.7858
LeftUpLeg  8.38881 4.44991 10.1381
LeftLeg  19.8229 -8.01095 -2.85953
LeftFoot  -4.02925 0.843118 -12.8387
LeftToes  -6.27559e-011 -2.10356e-011 8.24929e-012
183
root  0.0444469 38.6377 31.5965 179.994 -44.359 177.312
RightUpLeg  -19.7815 -18.5167 -19.8939
RightLeg  10.2779 -2.33575 1.02966
RightFoot  0.458217 -0.923174 8.9261
RightToes  -1.74623e-010 0 -2.59999e-017
Spine  3.59266 0.586019 0.556561
Spine1  14.5172 0.988343 -1.0255
HEad  -20.5477 -26.4407 12.9941
LeftShoulder1  2.15877 -3.79632 -23.3131
LeftArm  17.7242 10.178 -44.8679
LeftForeArm  115.821 -78.3556 -118.94
LeftHand  -0.0615228 4.91485 11.3525
RightShoulder  3.01629 5.24733 28.5282
RightArm  -17.6606 -15.2348 25.7098
RightForeArm  27.5351 62.9092 19.6702
RightHand  -0.18482 -8.48774 5.0674
LeftUpLeg  9.75958 8.05723 9.51139
LeftLeg  20.4095 -9.02234 -3.3673
LeftFoot  -15.4313 -0.371988 -13.3244
LeftToes  -6.27559e-011 -2.10356e-011 8.24929e-012
184
root  0.311518 37.2015 31.7743 -177.985 -42.2816 174.512
RightUpLeg  -26.3013 -27.8084 -17.5574
RightLeg  13.986 -2.69562 -0.114182
RightFoot  -1.77274 -0.602246 6.92007
RightToes  -1.74623e-010 0 -2.59999e-017
Spine  5.0461 -0.254598 -4.38949
Spine1  14.2937 -0.924493 1.29096
HEad  -22.2663 -23.0515 11.2042
LeftShoulder1  2.20167 -3.66463 -24.516
LeftArm  17.0557 -0.972427 -45.044
LeftForeArm  94.114 -79.6118 -98.1292
LeftHand  0.0223935 5.75859 12.3582
RightShoulder  3.03087 5.24376 28.7154
RightArm  -20.2098 -9.83444 26.4319
RightForeArm  40.5698 67.4895 23.2679
RightHand  0.0140107 -8.68454 -2.05159
LeftUpLeg  8.55485 10.6552 7.29214
LeftLeg  24.6861 -7.86537 -3.58807
LeftFoot  -26.2806 -1.48651 -12.5257
LeftToes  -6.27559e-011 -2.10356e-011 8.24929e-012
185
root  0.573046 36.3138 31.4781 -176.537 -40.2086 172.633
RightUpLeg  -31.7641 -32.1465 -14.2588
RightLeg  17.0996 -1.70653 -0.765694
RightFoot  2.40806 -0.350284 3.04038
RightToes  -1.74623e-010 0 -2.59999e-017
Spine  5.06214 -1.0825 -7.40919
Spine1  15.1519 -2.17705 2.01494
HEad  -23.6216 -20.6775 11.9327
LeftShoulder1  2.15772 -3.51981 -24.5207
LeftArm  18.0955 -16.5857 -48.6375
LeftForeArm  69.8508 -79.3027 -73.6073
LeftHand  0.0341237 5.8484 12.9161
RightShoulder  3.1812 5.42059 29.7357
RightArm  -22.6293 -9.0972 29.6002
RightForeArm  51.1499 72.6214 31.0893
RightHand  0.173836 -8.07725 -8.86398
LeftUpLeg  6.91165 12.5667 6.4282
LeftLeg  29.4914 -6.87354 -3.83562
LeftFoot  -30.8716 -2.07112 -13.0659
LeftToes  -6.27559e-011 -2.10356e-011 8.24929e-012
186
root  0.536992 36.1984 30.4026 -176.968 -35.6442 173.142
RightUpLeg  -34.051 -29.9389 -11.4692
RightLeg  18.8084 1.02954 0.183592
RightFoot  9.56864 0.00986431 0.224805
RightToes  -1.74623e-010 0 -2.59999e-017
Spine  3.77081 -2.21205 -6.38317
Spine1  14.6479 -2.49427 -0.381884
HEad  -21.0024 -17.2052 11.1254
LeftShoulder1  2.07318 -3.45846 -23.5293
LeftArm  19.4903 -28.9245 -55.2611
LeftForeArm  64.1106 -78.9026 -66.9172
LeftHand  -0.0745532 4.85647 13.2705
RightShoulder  3.23393 5.51742 29.941
RightArm  -19.9924 -12.9169 34.6604
RightForeArm  61.4273 76.5995 43.1409
RightHand  0.128528 -7.53799 -8.77536
LeftUpLeg  10.0779 13.8665 7.60201
LeftLeg  27.7362 -4.61729 -2.28771
LeftFoot  -29.2726 -2.20458 -15.0224
LeftToes  -6.27559e-011 -2.10356e-011 8.24929e-012
187
root  0.321757 36.6019 28.5432 -178.827 -28.3064 174.781
RightUpLeg  -33.8783 -25.4518 -8.62493
RightLeg  21.8558 6.08744 2.50053
RightFoot  8.8319 -0.29129 2.07488
RightToes  -1.74623e-010 0 -2.59999e-017
Spine  2.17482 -3.60909 -6.37477
Spine1  12.5062 -3.94265 -0.302004
HEad  -15.3668 -9.48099 6.07823
LeftShoulder1  1.93744 -3.19104 -22.6473
LeftArm  18.4778 -36.0191 -60.0585
LeftForeArm  73.516 -79.4766 -74.8475
LeftHand  -0.198963 3.8058 13.8521
RightShoulder  3.07733 5.40343 28.6081
RightArm  -11.6698 -16.7418 37.6382
RightForeArm  73.6034 78.7882 55.1981
RightHand  -0.0294507 -6.56373 -0.422576
LeftUpLeg  17.4263 14.0091 8.71831
LeftLeg  21.8313 -0.29552 -0.106969
LeftFoot  -23.9104 -1.99679 -19.4066
LeftToes  -6.27559e-011 -2.10356e-011 8.24929e-012
188
root  0.369173 37.1494 26.2442 179.51 -20.4074 175.611
RightUpLeg  -31.6443 -18.8947 -6.67441
RightLeg  25.1197 10.9569 5.35855
RightFoot  4.57556 -0.537398 4.0532
RightToes  -1.74623e-010 0 -2.59999e-017
Spine  0.308544 -5.41544 -10.38
Spine1  10.7487 -6.96562 4.4193
HEad  -9.86803 1.51482 1.21043
LeftShoulder1  1.6689 -2.72434 -20.3504
LeftArm  14.2818 -40.0766 -59.2802
LeftForeArm  85.7404 -79.8654 -86.0631
LeftHand  -0.202921 3.85258 14.6437
RightShoulder  2.93529 5.23584 27.6187
RightArm  -3.59614 -20.017 36.2728
RightForeArm  90.3453 80.2848 72.3371
RightHand  0.0606588 -4.0465 7.13205
LeftUpLeg  22.302 16.0474 10.3289
LeftLeg  21.8069 5.49764 2.59628
LeftFoot  -13.0001 -0.210925 -23.4324
LeftToes  -6.27559e-011 -2.10356e-011 8.24929e-012
